<svg width="926" height="473" viewBox="0 0 926 473" fill="none" xmlns="http://www.w3.org/2000/svg">
<path d="M301.777 121.933C337.051 139.438 401.617 181.661 412.436 179.198C424.575 176.471 468.821 158.174 486.59 143.66C494.947 136.799 529.429 212.536 521.072 218.254C488.525 240.509 422.992 254.583 404.783 256.606C384.464 258.893 323.065 196.263 288.847 153.6C275.212 136.535 258.939 100.557 301.777 121.933Z" fill="#D3766A"/>
<path d="M502.336 140.229C509.549 136.447 516.586 132.753 521.864 130.026C526.438 127.563 529.605 125.891 530.221 125.539C542.36 118.063 557.578 94.5761 567.166 99.59C574.291 103.372 567.43 113.049 565.846 115.072C565.788 115.189 565.729 115.277 565.67 115.336C565.758 115.248 565.846 115.16 565.934 115.072C568.045 112.961 578.161 103.548 583.879 110.498C590.212 118.238 580.36 131.433 580.36 131.433C580.419 131.433 580.624 131.286 580.976 130.993C581.064 130.993 581.064 130.993 581.064 130.905C581.24 130.817 581.416 130.729 581.592 130.553C585.11 128.266 594.962 122.549 599.8 129.234C605.606 137.503 595.138 149.554 595.138 149.554C595.138 149.554 604.111 143.132 609.125 151.753C614.139 160.373 585.726 184.651 575.083 192.04C557.314 204.267 532.86 215.615 519.049 220.629C515.795 221.772 513.156 222.564 511.309 223.004L494.507 194.591L493.98 193.8L493.892 193.624L471.725 156.151C471.725 156.151 487.294 148.058 502.336 140.229Z" fill="#D3766A"/>
<path d="M527.846 146.651C534.971 143.396 540.513 140.581 545.263 137.327C552.828 132.225 558.458 126.067 565.231 115.512C565.465 115.218 565.671 115.072 565.847 115.072C565.905 115.013 565.935 115.013 565.935 115.072C566.198 115.072 566.374 115.424 566.111 115.951C560.657 128.354 554.147 135.04 545.175 140.054C540.337 142.693 534.707 144.892 528.022 147.267C527.67 147.443 527.494 146.827 527.846 146.651Z" fill="#2D3134"/>
<path d="M540.865 164.068C559.425 153.864 567.87 147.706 580.977 130.993C581.065 130.993 581.065 130.993 581.065 130.905C581.241 130.641 581.504 130.553 581.592 130.553C581.944 130.553 582.208 131.169 581.856 131.697C570.861 150.257 560.129 156.063 541.041 164.596C540.777 164.684 540.601 164.244 540.865 164.068Z" fill="#2D3134"/>
<path d="M594.434 151.313C583.791 167.058 572.443 175.855 552.036 181.748C551.508 181.836 551.332 181.221 551.772 181.045C571.036 173.392 580.096 166.267 593.995 150.873C594.874 149.905 595.138 150.257 594.434 151.313Z" fill="#2D3134"/>
<path d="M457.122 161.253C457.122 161.253 473.835 134.16 479.905 129.41C484.655 125.715 498.729 120.174 511.66 117.007C523.447 114.104 534.267 113.224 536.202 117.447C536.261 117.505 536.319 117.564 536.378 117.623C536.671 118.444 536.847 119.265 536.906 120.086C536.994 121.493 536.73 123.076 536.114 124.572C536.114 124.572 536.202 124.572 536.114 124.572C533.915 130.114 527.405 135.479 520.28 139.79C514.915 143.132 509.197 145.771 504.799 147.531C504.799 147.531 513.947 171.281 503.391 185.091V185.179C503.157 185.414 502.951 185.648 502.775 185.883C502.072 186.675 501.368 187.554 500.488 188.258C485.535 201.277 457.122 161.253 457.122 161.253Z" fill="#D3766A"/>
<path d="M536.641 121.317C535.41 136.623 518.873 142.692 506.822 148.234C511.66 161.077 511.923 178.758 501.72 188.698C501.456 188.962 501.104 188.61 501.28 188.258C509.372 177.878 507.701 160.021 504.007 148.146C503.567 147.53 503.479 146.651 504.359 146.211C516.058 140.581 532.859 135.303 536.553 121.317C536.553 121.229 536.641 121.229 536.641 121.317Z" fill="#2D3134"/>
<path d="M398.626 258.102C378.13 254.319 302.129 178.494 284.536 149.642C266.856 120.789 270.286 107.067 296.939 118.414C323.505 129.674 404.432 178.406 411.293 177.878C418.154 177.262 453.956 159.054 453.956 159.054L501.104 233.12C501.104 233.12 419.034 261.884 398.626 258.102Z" fill="#31C3E0"/>
<path opacity="0.2" fill-rule="evenodd" clip-rule="evenodd" d="M328.431 159.845C327.727 160.901 327.112 162.22 325.616 162.924C324.209 163.54 322.362 163.1 321.218 161.956C320.514 161.253 319.371 160.989 318.315 161.253C317.787 161.341 317.348 161.605 316.82 162.044C316.204 162.484 315.676 162.836 315.148 163.188C315.852 162.132 316.38 160.813 317.875 160.109C319.283 159.406 321.13 159.757 322.362 160.901C323.065 161.693 324.121 161.956 325.264 161.781C325.792 161.693 326.32 161.429 326.76 160.989C327.375 160.637 327.903 160.197 328.431 159.845ZM491.253 236.462C490.608 236.697 489.933 236.902 489.23 237.078C489.845 236.726 490.549 236.462 491.253 236.462ZM495.299 235.055C494.713 235.289 494.097 235.495 493.452 235.67C493.687 235.495 493.921 235.231 494.156 234.879C494.42 234.439 494.595 233.911 494.595 233.207C494.771 232.504 494.859 231.888 495.035 231.184C495.211 232.416 495.651 233.647 495.299 235.055ZM446.127 209.193C445.599 210.689 444.104 211.744 442.433 211.744C441.377 211.744 440.41 212.272 439.706 213.24C439.442 213.679 439.266 214.207 439.178 214.823C439.09 215.527 439.002 216.23 438.826 216.846C438.65 215.527 438.035 214.207 438.65 212.712C439.178 211.216 440.849 210.161 442.433 210.249C443.488 210.249 444.456 209.633 445.072 208.665C445.336 208.226 445.423 207.698 445.511 206.994C445.687 206.378 445.687 205.675 445.863 205.059C446.127 206.378 446.655 207.61 446.127 209.193ZM386.575 244.379C386.136 245.874 384.552 247.018 382.881 247.018C382.001 247.018 381.122 247.37 380.506 248.073C380.154 247.839 379.802 247.575 379.45 247.282C380.154 246.138 381.561 245.435 382.881 245.435C383.937 245.435 384.904 244.819 385.52 243.939C385.784 243.411 385.96 242.884 385.96 242.268C386.136 241.564 386.224 240.948 386.4 240.245C386.575 241.564 387.103 242.884 386.575 244.379ZM357.107 150.169C357.107 150.169 357.078 150.199 357.019 150.257C356.756 150.697 356.58 151.225 356.492 151.929C356.404 152.544 356.316 153.248 356.14 153.864C355.876 152.544 355.348 151.225 355.964 149.729C355.964 149.671 355.993 149.612 356.052 149.554C356.404 149.729 356.756 149.935 357.107 150.169ZM323.065 195.735C322.831 195.5 322.625 195.295 322.45 195.119C322.508 194.708 322.596 194.298 322.713 193.887C322.801 194.503 322.977 195.119 323.065 195.735ZM290.694 137.59C290.167 139.086 288.583 140.141 287 140.141C285.856 140.141 284.889 140.669 284.273 141.637C284.009 142.077 283.833 142.604 283.745 143.308C283.657 143.924 283.569 144.628 283.393 145.243C283.13 143.924 282.602 142.604 283.217 141.109C283.745 139.614 285.417 138.558 287 138.646C287.968 138.646 289.023 138.03 289.551 137.063C289.903 136.623 289.991 136.095 290.079 135.391C290.167 134.776 290.255 134.072 290.431 133.456C290.694 134.776 291.222 136.007 290.694 137.59ZM372.325 181.748C371.534 182.892 371.006 184.123 369.51 184.915C368.103 185.531 366.256 185.267 365.112 184.123C364.32 183.332 363.265 182.98 362.209 183.244C361.594 183.332 361.154 183.596 360.626 184.036C360.098 184.387 359.57 184.827 358.955 185.179C359.746 184.035 360.274 182.716 361.857 182.1C363.265 181.397 365.112 181.836 366.168 182.98C366.959 183.772 368.015 184.035 369.159 183.772C369.686 183.596 370.126 183.332 370.654 182.892C371.182 182.54 371.709 182.1 372.325 181.748ZM460.289 169.082C460.172 169.258 460.026 169.404 459.85 169.521C458.53 170.489 456.683 170.401 455.363 169.521C454.484 168.818 453.34 168.73 452.285 169.082C451.757 169.345 451.317 169.609 450.877 170.137C450.437 170.577 449.998 171.105 449.47 171.545C449.998 170.313 450.349 168.994 451.757 168.026C453.076 167.146 454.924 167.322 456.243 168.202C457.035 168.818 458.178 168.906 459.234 168.466C459.41 168.407 459.586 168.319 459.762 168.202L460.289 169.082ZM406.543 210.953C405.928 212.096 405.576 213.504 404.256 214.471C403.025 215.351 401.09 215.351 399.77 214.383C398.89 213.767 397.835 213.679 396.779 214.031C396.251 214.207 395.812 214.559 395.372 215.087C394.844 215.527 394.404 215.967 393.876 216.406C394.492 215.263 394.756 213.855 396.164 212.976C397.483 212.096 399.418 212.184 400.65 213.152C401.529 213.767 402.673 213.855 403.64 213.416C404.256 213.152 404.608 212.888 405.048 212.36C405.576 211.832 406.016 211.392 406.543 210.953ZM462.401 240.421C461.609 241.564 461.081 242.796 459.586 243.587C458.178 244.291 456.331 243.939 455.188 242.796C454.396 242.004 453.34 241.74 452.285 241.916C451.669 242.004 451.229 242.268 450.701 242.708C450.174 243.059 449.646 243.499 449.03 243.851C449.822 242.708 450.349 241.388 451.845 240.772C453.34 240.069 455.188 240.509 456.243 241.652C456.947 242.444 458.09 242.708 459.146 242.444C459.762 242.356 460.201 242.004 460.729 241.564C461.257 241.212 461.785 240.772 462.401 240.421ZM420.178 184.915C418.858 185.179 417.539 185.707 416.043 185.091C414.548 184.563 413.58 182.892 413.58 181.309C413.58 180.341 412.965 179.285 411.997 178.758C411.557 178.406 411.029 178.318 410.326 178.23C409.71 178.142 409.006 178.054 408.391 177.878C408.83 177.79 409.27 177.702 409.798 177.614C410.443 177.79 410.942 177.878 411.293 177.878C411.587 177.819 411.997 177.731 412.525 177.614C414.02 178.142 415.076 179.725 415.164 181.309C415.076 182.452 415.604 183.42 416.571 184.036C417.011 184.299 417.539 184.475 418.243 184.563C418.858 184.651 419.562 184.739 420.178 184.915ZM426.071 243.763C424.84 244.027 423.52 244.555 421.937 243.939C420.442 243.411 419.474 241.74 419.474 240.245C419.474 239.189 418.858 238.133 417.979 237.606C417.451 237.254 416.923 237.166 416.219 237.078C415.604 236.99 414.9 236.902 414.284 236.726C415.604 236.462 416.835 235.934 418.418 236.462C419.914 236.99 421.057 238.573 421.057 240.157C420.969 241.3 421.585 242.268 422.465 242.884C422.905 243.235 423.432 243.323 424.136 243.411C424.752 243.499 425.456 243.587 426.071 243.763ZM360.538 223.268C359.219 223.531 357.899 224.059 356.404 223.443C354.908 222.916 353.941 221.244 353.941 219.661C353.941 218.605 353.325 217.638 352.357 217.022C351.918 216.758 351.39 216.67 350.686 216.582C350.07 216.406 349.367 216.406 348.751 216.23C350.07 215.966 351.302 215.439 352.885 215.967C354.381 216.494 355.436 217.99 355.524 219.661C355.436 220.717 355.964 221.684 356.931 222.388C357.371 222.652 357.899 222.828 358.603 222.916C359.219 223.004 359.922 223.092 360.538 223.268Z" fill="black"/>
<path d="M442.785 170.313C449.998 180.693 456.859 191.337 463.632 202.068C466.975 207.258 470.405 212.448 473.748 217.726C477.179 223.18 480.345 228.809 483.776 234.263C483.952 234.527 483.6 234.703 483.424 234.527C479.554 229.249 475.595 224.235 471.901 218.869C468.294 213.768 464.952 208.578 461.609 203.388C454.748 192.744 448.15 181.837 442.433 170.489C442.257 170.313 442.609 170.049 442.785 170.313Z" fill="#2D3134"/>
<path d="M413.492 177.438C413.756 177.35 413.932 177.79 413.58 177.878C408.39 179.198 403.464 181.485 398.362 183.156C393.26 184.827 388.07 186.235 382.968 187.906C382.88 187.906 382.792 187.73 382.88 187.642C387.63 185.267 392.468 182.892 397.482 181.221C402.76 179.462 408.126 178.758 413.492 177.438Z" fill="#2D3134"/>
<path d="M480.169 240.069C454.396 248.337 412.349 260.652 398.627 258.101C378.131 254.319 302.13 178.494 284.537 149.642C281.634 144.979 279.347 140.757 277.588 136.887L480.169 240.069Z" fill="#2D3134"/>
<path d="M690.404 464.114C684.159 466.225 505.591 467.368 498.73 463.146C496.179 461.563 494.508 435.525 493.276 404.034C493.1 397.261 469.878 288.009 469.878 288.009L589.421 286.866L608.422 402.979C608.422 402.979 677.034 433.062 684.071 438.516C691.02 444.058 696.65 461.915 690.404 464.114Z" fill="#D3766A"/>
<path d="M690.404 464.026C684.159 466.225 505.591 467.368 498.73 463.146C496.179 461.475 494.42 435.525 493.364 404.034C493.276 402.451 491.957 395.326 490.021 385.298H605.518L608.421 402.979C608.421 402.979 677.033 433.062 684.071 438.516C691.02 444.058 696.649 461.915 690.404 464.026Z" fill="white"/>
<path d="M690.404 464.114C684.159 466.225 505.591 467.368 498.73 463.146C496.179 461.563 494.508 435.525 493.276 404.034L608.421 402.979C608.421 402.979 677.034 433.062 684.071 438.516C691.02 444.058 696.65 461.915 690.404 464.114Z" fill="#31C3E0"/>
<path d="M687.854 457.429C657.858 458.572 537.083 460.155 507.439 459.012C507.175 459.012 507.175 458.836 507.439 458.836C537.083 457.077 657.858 456.373 687.854 456.901C688.47 456.989 688.47 457.429 687.854 457.429Z" fill="#2D3134"/>
<path d="M672.548 432.623C660.672 433.59 650.029 443.97 648.445 455.669C648.445 455.845 648.094 455.845 648.094 455.669C647.83 449.424 650.996 443.706 654.691 439.66C658.473 435.349 665.422 432.007 672.548 432.183C672.723 432.183 672.723 432.535 672.548 432.623Z" fill="#2D3134"/>
<path d="M620.297 407.289C608.509 410.632 598.306 414.854 587.486 420.571C587.134 420.747 586.606 420.308 586.87 419.956C594.259 410.104 608.07 405.793 620.121 405.881C620.912 405.881 621.176 407.113 620.297 407.289Z" fill="#2D3134"/>
<path d="M629.621 410.895C617.834 414.15 607.542 418.46 596.722 424.09C596.37 424.266 595.843 423.826 596.106 423.474C603.495 413.622 617.394 409.312 629.357 409.4C630.237 409.4 630.413 410.632 629.621 410.895Z" fill="#2D3134"/>
<path d="M638.857 414.414C627.07 417.757 616.866 421.979 606.046 427.609C605.695 427.785 605.167 427.433 605.431 426.993C612.82 417.141 626.63 412.831 638.681 412.919C639.473 412.919 639.649 414.15 638.857 414.414Z" fill="#2D3134"/>
<path d="M648.093 417.933C636.394 421.275 626.102 425.497 615.283 431.127C614.931 431.391 614.403 430.951 614.667 430.599C622.056 420.747 635.954 416.437 647.917 416.525C648.797 416.525 648.973 417.757 648.093 417.933Z" fill="#2D3134"/>
<path d="M514.828 430.336C501.369 430.424 501.545 451.359 515.004 451.183C528.462 451.095 528.286 430.16 514.828 430.336Z" fill="white"/>
<path fill-rule="evenodd" clip-rule="evenodd" d="M631.996 391.367C625.575 399.724 615.723 405.09 607.278 410.983C606.399 411.599 605.343 410.895 605.079 410.104C604.903 410.104 604.728 410.016 604.728 409.752C605.343 399.372 609.39 387.497 615.459 379.052C619.154 373.774 626.719 368.761 632.788 373.774C638.594 378.525 635.779 386.441 631.996 391.367ZM632.524 381.427C631.205 368.409 619.505 378.525 616.955 382.483C615.283 385.034 613.876 387.849 612.644 390.576C609.917 396.381 608.07 402.363 605.959 408.344C610.005 405.178 614.228 402.363 618.274 399.372C623.2 395.766 633.228 388.64 632.524 381.427Z" fill="#2D3134"/>
<path fill-rule="evenodd" clip-rule="evenodd" d="M562.152 402.363C563.032 394.534 571.916 392.775 578.25 393.918C588.454 395.854 599.713 401.483 607.366 408.52C607.542 408.696 607.454 408.872 607.278 409.048C607.718 409.84 607.454 411.071 606.398 411.159C596.195 412.831 585.463 415.909 574.995 414.326C568.926 413.446 561.273 409.752 562.152 402.363ZM590.389 410.544C595.403 409.84 600.417 408.872 605.519 408.432C599.801 405.618 594.259 402.539 588.366 400.252C585.463 399.196 582.56 398.141 579.569 397.525C574.995 396.469 559.514 397.349 567.694 407.553C572.18 413.27 584.319 411.335 590.389 410.544Z" fill="#2D3134"/>
<path opacity="0.1" d="M690.404 464.114C685.742 465.697 582.56 466.753 529.518 465.345L517.643 403.858L608.422 402.979C608.422 402.979 677.034 433.062 684.071 438.516C691.02 444.058 696.65 461.915 690.404 464.114Z" fill="black"/>
<path d="M551.069 134.864C576.051 177.086 616.25 372.455 616.25 372.455L484.92 373.774L460.114 281.588C460.114 281.588 428.183 388.025 327.552 441.155C283.569 464.378 202.203 449.16 184.17 379.404L268.967 273.319C268.967 273.319 297.644 280.181 309.255 267.954C349.279 225.907 416.132 130.905 440.938 113.049C472.956 90.0019 528.198 96.1594 551.069 134.864Z" fill="#37474F"/>
<path d="M433.724 185.355C435.659 189.929 436.539 195.119 437.858 199.957C439.178 204.707 440.497 209.457 441.817 214.207C443.136 219.133 459.058 276.574 460.113 281.412C460.201 281.676 459.938 281.764 459.762 281.588C457.387 278.685 442.257 224.499 441.729 222.212C441.377 221.772 441.113 221.244 440.849 220.805C440.321 219.749 439.794 218.781 439.266 217.726C438.328 215.849 437.419 213.914 436.539 211.92C434.78 207.874 433.724 203.388 432.317 199.165C432.229 198.902 432.581 198.726 432.669 198.99C434.164 203.212 436.363 207.082 438.21 211.129C438.797 212.36 439.354 213.562 439.882 214.735C439.882 214.676 439.882 214.618 439.882 214.559C438.738 209.633 437.683 204.619 436.539 199.693C435.483 194.943 433.9 190.193 433.372 185.355C433.372 185.179 433.636 185.179 433.724 185.355Z" fill="#2D3134"/>
<path d="M604.463 350.552C596.37 351.256 588.102 351.256 580.009 351.432C565.055 351.696 550.189 351.783 535.235 351.871C520.369 351.959 505.503 352.135 490.637 351.256C490.285 351.256 490.197 350.64 490.549 350.64C498.73 350.112 506.911 349.848 515.091 349.672C530.045 349.408 544.911 349.496 559.865 349.408C567.313 349.408 574.76 349.438 582.208 349.496C589.597 349.496 597.074 349.496 604.463 350.024C604.815 350.024 604.815 350.552 604.463 350.552Z" fill="#2D3134"/>
<path d="M616.251 372.455L504.448 373.511L455.716 105.044C487.911 92.3769 531.365 101.613 551.069 134.864C576.051 177.086 616.251 372.455 616.251 372.455Z" fill="#2D3134"/>
<path d="M742.478 471.239C736.233 473.35 557.578 474.23 550.804 470.007C548.165 468.336 546.494 442.387 545.439 410.895C545.175 404.122 497.498 304.019 497.498 304.019L616.953 303.051L660.584 410.016C660.584 410.016 729.108 440.275 736.145 445.729C743.094 451.183 748.636 469.128 742.478 471.239Z" fill="#D3766A"/>
<path d="M742.39 471.239C736.233 473.35 557.577 474.23 550.804 470.007C548.165 468.336 546.494 442.387 545.438 410.895C545.438 409.4 541.392 399.46 537.697 390.928L651.963 388.816L660.583 410.016C660.583 410.016 729.107 440.275 736.145 445.729C743.094 451.271 748.635 469.128 742.39 471.239Z" fill="white"/>
<path d="M742.478 471.239C736.233 473.35 557.578 474.23 550.804 470.007C548.165 468.336 546.494 442.387 545.438 410.896L660.584 410.016C660.584 410.016 729.108 440.276 736.145 445.729C743.094 451.183 748.636 469.128 742.478 471.239Z" fill="#31C3E0"/>
<path d="M739.839 464.642C709.931 465.697 589.068 467.105 559.424 465.873C559.161 465.873 559.161 465.697 559.424 465.697C589.068 463.938 709.931 463.498 739.839 464.114C740.455 464.114 740.455 464.554 739.839 464.642Z" fill="#2D3134"/>
<path d="M724.622 439.748C712.747 440.715 702.103 451.007 700.432 462.794C700.432 462.97 700.08 462.97 700.08 462.794C699.816 456.549 702.983 450.831 706.677 446.785C710.548 442.475 717.497 439.132 724.622 439.396C724.798 439.396 724.798 439.748 724.622 439.748Z" fill="#2D3134"/>
<path d="M672.459 414.414C660.672 417.669 650.38 421.891 639.56 427.521C639.208 427.697 638.68 427.345 638.944 426.905C646.333 417.141 660.232 412.831 672.195 412.919C673.074 412.919 673.25 414.15 672.459 414.414Z" fill="#2D3134"/>
<path d="M681.695 417.933C669.908 421.275 659.616 425.498 648.796 431.127C648.445 431.303 647.917 430.863 648.181 430.512C655.658 420.66 669.468 416.349 681.519 416.437C682.311 416.437 682.487 417.669 681.695 417.933Z" fill="#2D3134"/>
<path d="M690.931 421.539C679.144 424.794 668.94 429.016 658.121 434.646C657.769 434.822 657.241 434.47 657.505 434.03C664.894 424.178 678.792 419.956 690.755 420.044C691.635 420.044 691.811 421.275 690.931 421.539Z" fill="#2D3134"/>
<path d="M700.256 425.058C688.468 428.401 678.177 432.623 667.357 438.253C667.005 438.429 666.477 437.989 666.741 437.637C674.13 427.785 688.029 423.475 699.992 423.563C700.871 423.563 701.047 424.794 700.256 425.058Z" fill="#2D3134"/>
<path d="M566.902 437.197C553.443 437.285 553.619 458.22 567.078 458.132C580.536 457.956 580.36 437.109 566.902 437.197Z" fill="white"/>
<path fill-rule="evenodd" clip-rule="evenodd" d="M684.159 398.405C677.737 406.849 667.885 412.127 659.353 418.021C658.473 418.636 657.505 417.933 657.242 417.141C656.978 417.141 656.802 417.053 656.802 416.789C657.505 406.409 661.552 394.534 667.621 386.09C671.316 380.812 678.881 375.886 685.038 380.9C690.756 385.562 687.853 393.567 684.159 398.405ZM684.598 388.553C683.367 375.446 671.668 385.562 669.117 389.52C667.445 392.071 666.038 394.886 664.719 397.613C662.08 403.419 660.232 409.4 658.121 415.382C662.08 412.215 666.302 409.4 670.436 406.409C675.362 402.803 685.302 395.678 684.598 388.553Z" fill="#2D3134"/>
<path fill-rule="evenodd" clip-rule="evenodd" d="M614.226 409.312C615.194 401.483 624.078 399.724 630.412 400.956C640.616 402.891 651.787 408.521 659.44 415.558C659.616 415.734 659.528 415.91 659.44 416.085C659.792 416.877 659.616 418.109 658.56 418.197C648.268 419.868 637.537 422.859 627.069 421.363C621 420.396 613.435 416.701 614.226 409.312ZM642.463 417.581C647.565 416.877 652.579 415.91 657.593 415.47C651.963 412.567 646.421 409.576 640.44 407.289C637.625 406.233 634.634 405.178 631.731 404.474C627.069 403.419 611.675 404.298 619.856 414.59C624.342 420.22 636.481 418.373 642.463 417.581Z" fill="#2D3134"/>
<path d="M555.554 126.771C580.536 168.994 665.158 381.515 665.158 381.515L525.647 382.747L479.993 270.856C479.993 270.856 418.77 462.003 294.037 462.003C232.286 462.003 199.035 430.687 178.892 386.265L292.19 274.727C292.19 274.727 304.153 283.171 310.398 276.75C350.95 235.231 420.617 122.9 445.423 104.956C477.442 81.9092 532.596 88.0666 555.554 126.771Z" fill="#37474F"/>
<path d="M645.277 359.612C637.097 360.228 628.916 360.228 620.735 360.404C605.781 360.668 590.915 360.756 575.962 360.844C561.096 360.932 546.23 361.196 531.364 360.316C531.012 360.228 530.924 359.7 531.276 359.612C539.456 359.085 547.637 358.821 555.818 358.733C570.772 358.469 585.638 358.469 600.592 358.469C608.039 358.41 615.487 358.41 622.934 358.469C630.323 358.557 637.8 358.469 645.189 358.997C645.541 358.997 645.541 359.524 645.277 359.612Z" fill="#2D3134"/>
<path d="M480.257 270.68C480.257 270.768 480.081 270.944 479.993 270.768C477.53 266.37 475.507 261.532 473.747 256.87C471.812 251.885 470.023 246.871 468.381 241.828C466.622 239.013 464.599 236.198 462.752 233.471C460.465 230.041 458.441 226.434 457.21 222.564C457.21 222.388 457.386 222.3 457.474 222.476C458.969 226.434 461.256 229.865 463.631 233.296C465.039 235.495 466.446 237.606 467.678 239.805C466.681 236.814 465.713 233.794 464.775 230.745C462.136 221.948 460.201 212.8 458.266 203.74C458.178 203.476 458.617 203.3 458.793 203.652C459.614 206.115 460.465 208.607 461.344 211.129C462.312 213.504 463.016 215.967 463.895 218.342C467.062 226.874 469.613 235.671 472.516 244.291C473.923 248.689 475.331 253.088 476.65 257.486C477.969 261.796 479.377 266.194 480.257 270.68Z" fill="#2D3134"/>
<path d="M535.41 349.584C528.549 339.117 522.216 328.297 516.234 317.477C505.503 298.125 495.563 278.421 486.414 258.541C481.84 248.602 477.266 238.662 473.22 228.546C468.997 218.342 464.687 208.138 460.905 197.846C460.817 197.67 461.081 197.67 461.081 197.758C463.544 203.476 465.831 209.194 468.294 214.823C470.757 220.453 473.308 226.083 475.859 231.624C484.948 251.68 494.536 271.531 504.623 291.176C514.651 310.792 525.47 329.968 535.674 349.409C535.762 349.584 535.498 349.76 535.41 349.584Z" fill="#2D3134"/>
<path d="M314.092 273.671C310.867 277.717 307.583 281.735 304.24 285.722C301.337 289.241 298.435 292.935 295.444 296.454C292.453 299.914 289.492 303.374 286.559 306.834C283.657 310.44 280.666 313.959 277.763 317.565C274.772 321.172 271.693 324.514 268.791 328.209C268.615 328.385 268.351 328.121 268.527 327.945C271.518 323.635 274.42 319.149 277.587 314.926C280.93 310.44 284.448 305.954 287.967 301.468C285.914 303.169 283.891 304.84 281.897 306.482C278.203 309.473 274.42 312.463 270.902 315.63C270.726 315.806 270.638 315.542 270.726 315.454C274.244 312.112 277.587 308.681 281.194 305.514C284.448 302.699 287.791 300.06 291.222 297.509C292.394 296.043 293.597 294.607 294.828 293.199C300.81 286.25 307.231 279.653 313.828 273.319C314.004 273.143 314.268 273.495 314.092 273.671Z" fill="#2D3134"/>
<path d="M252.869 378.876C249.791 383.187 245.656 386.529 240.994 389.432C236.244 392.335 230.966 394.358 225.601 396.469C225.337 396.557 224.985 396.117 225.249 395.942C230.263 392.863 235.277 389.696 239.939 386.177C243.985 383.187 247.768 379.844 250.407 375.798C253.221 371.4 254.453 366.298 254.453 361.02C254.365 355.566 253.045 350.2 251.462 344.922C250.67 342.195 249.615 339.468 248.647 336.742C248.119 335.246 247.504 333.839 246.888 332.343C246.624 331.728 246.272 331.112 246.008 330.496C246.008 330.496 245.979 330.467 245.92 330.408C245.862 330.174 245.803 329.968 245.744 329.792C245.627 329.382 245.539 329.001 245.481 328.649C245.393 328.297 245.832 328.121 246.096 328.385C247.24 329.616 247.944 331.288 248.735 332.695C249.556 334.22 250.377 335.745 251.198 337.269C252.87 340.26 254.189 343.339 255.42 346.418C259.643 357.237 259.379 369.728 252.869 378.876Z" fill="#2D3134"/>
<path d="M472.516 244.731C471.196 247.986 469.965 251.152 468.646 254.407C457.65 280.444 444.543 305.514 429.677 329.352C415.339 352.311 399.506 374.742 380.505 393.478C362.209 411.599 340.57 426.377 316.203 432.974C292.541 439.396 267.471 436.933 245.304 425.761C234.221 420.219 224.193 412.567 215.66 403.154C206.512 393.302 198.947 382.043 191.734 370.52C191.558 370.344 191.91 370.08 191.998 370.344C193.933 373.1 195.868 375.827 197.804 378.524C205.545 389.432 213.813 399.988 223.753 408.696C233.077 416.877 243.809 423.298 255.068 427.52C266.24 431.743 278.027 434.03 289.814 434.03C302.041 434.03 314.268 431.567 325.792 427.257C349.454 418.46 369.95 402.275 387.279 383.362C405.223 363.746 420.353 341.228 434.251 318.269C448.414 294.607 460.729 269.801 471.988 244.467C472.164 244.115 472.604 244.379 472.516 244.731Z" fill="#2D3134"/>
<path d="M522.567 373.247C522.743 373.774 521.952 374.126 521.688 373.599C520.808 371.839 519.753 370.168 518.785 368.497C517.817 366.737 517.026 364.89 516.146 363.131C514.387 359.612 512.686 356.035 511.044 352.399C505.151 339.468 499.873 326.274 494.771 313.079C492.132 306.511 489.64 299.885 487.294 293.199C486.062 289.857 484.831 286.514 483.775 283.171C482.72 279.917 480.169 273.759 479.641 270.416C479.553 269.889 480.433 269.713 480.697 270.065C481.664 271.736 483.511 276.398 484.215 278.157C484.977 279.975 485.71 281.793 486.414 283.611C487.91 287.306 489.317 291.088 490.812 294.783C495.914 307.889 501.104 320.908 506.558 333.927C509.314 340.436 512.07 346.945 514.827 353.455C516.234 356.797 517.466 360.052 518.785 363.307C520.104 366.649 521.248 369.992 522.567 373.247Z" fill="#2D3134"/>
<path d="M420.177 133.368C413.756 142.692 407.07 151.929 400.385 161.165C388.422 177.614 376.459 193.976 364.32 210.249C352.181 226.522 340.042 242.884 327.375 258.717C327.287 258.805 327.111 258.717 327.199 258.541C333.62 249.129 340.305 239.893 346.991 230.745C358.954 214.295 371.005 198.022 383.056 181.661C389.126 173.568 395.371 165.475 401.529 157.383C407.686 149.29 413.844 141.197 420.089 133.28C420.177 133.192 420.265 133.28 420.177 133.368Z" fill="#2D3134"/>
<path d="M251.198 130.553C274.069 103.46 305.032 118.326 308.375 124.484C328.167 161.253 348.311 289.153 345.496 291.704L175.109 391.543C175.109 391.543 160.243 238.31 251.198 130.553Z" fill="#31C3E0"/>
<path opacity="0.2" d="M285.944 180.957C284.625 181.221 283.305 181.748 281.722 181.133C280.314 180.605 279.259 178.934 279.259 177.35C279.347 176.295 278.731 175.327 277.763 174.799C277.324 174.448 276.796 174.36 276.092 174.272C275.388 174.096 274.773 174.096 274.069 173.92C275.388 173.656 276.708 173.128 278.291 173.656C279.787 174.184 280.842 175.679 280.842 177.35C280.842 178.406 281.37 179.374 282.338 180.077C282.777 180.341 283.305 180.517 283.921 180.605C284.625 180.693 285.24 180.781 285.944 180.957ZM298.875 263.731C297.643 263.995 296.324 264.523 294.74 263.907C293.245 263.379 292.277 261.708 292.277 260.213C292.277 259.157 291.662 258.101 290.782 257.574C290.254 257.222 289.727 257.134 289.023 257.046C288.407 256.958 287.703 256.87 287.088 256.694C288.407 256.518 289.639 255.99 291.222 256.518C292.717 256.958 293.861 258.541 293.861 260.125C293.773 261.268 294.389 262.236 295.268 262.852C295.708 263.203 296.236 263.291 296.94 263.379C297.555 263.467 298.259 263.555 298.875 263.731ZM249.967 208.578C248.735 208.754 247.328 209.281 245.832 208.666C244.337 208.138 243.369 206.554 243.369 204.971C243.369 203.916 242.754 202.948 241.874 202.332C241.346 202.068 240.818 201.892 240.115 201.892C239.499 201.716 238.795 201.628 238.179 201.453C239.499 201.277 240.73 200.749 242.314 201.277C243.809 201.716 244.865 203.3 244.953 204.971C244.865 206.027 245.481 206.994 246.36 207.61C246.8 207.962 247.328 208.138 248.031 208.138C248.647 208.314 249.351 208.402 249.967 208.578ZM223.489 293.375C222.17 293.551 220.851 294.079 219.267 293.463C217.86 292.935 216.804 291.352 216.804 289.769C216.892 288.713 216.276 287.745 215.309 287.13C214.869 286.866 214.341 286.69 213.637 286.69C212.934 286.514 212.318 286.426 211.614 286.25C212.934 286.074 214.253 285.546 215.837 286.074C217.332 286.602 218.388 288.097 218.388 289.769C218.388 290.824 218.915 291.792 219.883 292.407C220.323 292.759 220.851 292.935 221.466 292.935C222.17 293.111 222.786 293.199 223.489 293.375ZM220.147 347.913C218.827 348.089 217.508 348.617 216.012 348.001C214.517 347.473 213.462 345.89 213.549 344.306C213.549 343.251 212.934 342.283 211.966 341.667C211.526 341.404 210.999 341.228 210.295 341.228C209.679 341.052 208.975 340.964 208.36 340.788C209.679 340.612 210.911 340.084 212.494 340.612C213.989 341.052 215.045 342.635 215.045 344.218C215.045 345.362 215.573 346.33 216.54 346.945C216.98 347.297 217.508 347.473 218.212 347.473C218.827 347.649 219.531 347.737 220.147 347.913ZM264.569 121.141C263.513 121.317 262.37 121.757 261.138 121.493C261.549 121.258 261.959 121.024 262.37 120.789C262.428 120.789 262.487 120.789 262.546 120.789C263.249 120.877 263.865 120.965 264.569 121.141ZM323.681 233.647C322.889 234.791 322.361 236.022 320.866 236.814C319.458 237.43 317.611 237.166 316.468 236.022C315.676 235.231 314.62 234.879 313.565 235.143C312.949 235.231 312.509 235.495 311.981 235.935C311.454 236.286 310.926 236.726 310.31 237.078C311.102 235.934 311.63 234.615 313.125 233.999C314.62 233.296 316.468 233.735 317.523 234.879C318.227 235.583 319.37 235.934 320.514 235.671C321.042 235.495 321.482 235.231 322.009 234.791C322.537 234.439 323.065 233.999 323.681 233.647ZM341.889 257.574C341.713 257.691 341.567 257.838 341.449 258.014C340.922 258.453 340.482 258.981 339.954 259.421C340.394 258.365 340.746 257.222 341.713 256.342C341.772 256.753 341.831 257.163 341.889 257.574ZM195.429 264.171C194.637 265.315 194.109 266.546 192.614 267.338C191.207 268.041 189.359 267.69 188.216 266.546C187.6 265.93 186.808 265.578 185.929 265.578L186.281 264.171C187.336 264.171 188.48 264.611 189.271 265.403C189.975 266.194 191.119 266.458 192.174 266.194C192.79 266.018 193.23 265.754 193.758 265.315C194.285 264.963 194.813 264.523 195.429 264.171ZM250.758 321.788C249.967 322.843 249.439 324.075 247.943 324.866C246.536 325.57 244.689 325.218 243.545 324.075C242.754 323.283 241.698 323.019 240.555 323.195C240.027 323.283 239.587 323.547 239.059 323.987C238.443 324.339 237.916 324.778 237.388 325.13C238.092 324.075 238.707 322.755 240.203 322.051C241.61 321.348 243.545 321.788 244.601 322.931C245.305 323.723 246.448 323.987 247.504 323.723C248.119 323.635 248.559 323.283 249.087 322.843C249.615 322.491 250.143 322.051 250.758 321.788ZM180.915 356.709C180.123 357.765 179.595 359.084 178.1 359.788C176.868 360.404 175.373 360.228 174.229 359.524C174.288 358.879 174.317 358.205 174.317 357.501C174.493 357.618 174.64 357.765 174.757 357.941C175.461 358.645 176.605 358.908 177.66 358.645C178.276 358.557 178.716 358.293 179.243 357.853C179.771 357.413 180.299 357.061 180.915 356.709ZM254.893 251.944C254.101 253 253.573 254.231 252.078 255.023C250.67 255.726 248.823 255.375 247.68 254.231C246.888 253.439 245.832 253.175 244.777 253.351C244.161 253.439 243.721 253.703 243.193 254.143C242.666 254.495 242.138 254.935 241.522 255.287C242.314 254.231 242.842 252.912 244.337 252.208C245.832 251.592 247.68 252.032 248.735 253.088C249.439 253.879 250.582 254.143 251.638 253.879C252.254 253.791 252.694 253.527 253.221 253.088C253.749 252.648 254.277 252.296 254.893 251.944ZM301.778 309.912C300.986 310.968 300.458 312.287 298.963 312.991C297.555 313.695 295.708 313.431 294.565 312.287C293.773 311.496 292.717 311.144 291.662 311.32C291.046 311.496 290.606 311.76 290.078 312.111C289.551 312.551 289.023 312.903 288.407 313.255C289.199 312.199 289.727 310.88 291.222 310.264C292.717 309.561 294.565 310 295.62 311.144C296.412 311.848 297.467 312.111 298.611 311.936C299.139 311.76 299.579 311.496 300.106 311.056C300.634 310.704 301.162 310.264 301.778 309.912ZM290.694 137.59C290.166 139.086 288.583 140.141 287 140.141C285.856 140.141 284.888 140.669 284.273 141.637C284.009 142.077 283.833 142.604 283.745 143.308C283.657 143.924 283.569 144.628 283.393 145.243C283.129 143.924 282.601 142.604 283.217 141.109C283.745 139.614 285.416 138.558 287 138.646C287.967 138.646 289.023 138.03 289.551 137.063C289.902 136.623 289.99 136.095 290.078 135.391C290.166 134.776 290.254 134.072 290.43 133.456C290.694 134.776 291.222 136.007 290.694 137.59ZM329.486 285.282C329.047 286.69 327.463 287.833 325.792 287.833C324.736 287.833 323.769 288.361 323.153 289.241C322.801 289.769 322.625 290.208 322.625 290.912C322.449 291.616 322.361 292.232 322.185 292.935C322.009 291.616 321.482 290.296 322.097 288.713C322.625 287.218 324.208 286.25 325.792 286.25C326.847 286.25 327.815 285.634 328.431 284.755C328.695 284.227 328.871 283.787 328.871 283.083C329.047 282.38 329.134 281.764 329.31 281.06C329.486 282.38 330.014 283.699 329.486 285.282ZM322.889 198.022C322.449 199.517 320.866 200.573 319.282 200.661C318.139 200.573 317.171 201.189 316.556 202.068C316.204 202.508 316.116 203.036 316.028 203.74C315.852 204.355 315.852 205.059 315.676 205.675C315.412 204.443 314.884 203.036 315.5 201.54C316.028 200.045 317.611 199.077 319.195 199.077C320.25 199.077 321.218 198.462 321.833 197.582C322.185 197.054 322.273 196.526 322.361 195.823C322.449 195.207 322.537 194.503 322.713 193.888C322.889 195.207 323.417 196.439 322.889 198.022ZM281.81 219.925C281.282 221.42 279.787 222.476 278.115 222.476C277.06 222.476 276.092 223.004 275.476 223.971C275.124 224.411 274.949 224.939 274.949 225.555C274.773 226.258 274.685 226.874 274.509 227.578C274.333 226.258 273.805 224.939 274.421 223.444C274.949 221.948 276.532 220.893 278.115 220.981C279.171 220.981 280.138 220.365 280.754 219.397C281.018 218.957 281.194 218.43 281.194 217.726C281.37 217.11 281.458 216.406 281.634 215.791C281.81 217.11 282.338 218.342 281.81 219.925ZM192.438 315.806C191.998 317.301 190.415 318.357 188.832 318.445C187.688 318.357 186.72 318.885 186.105 319.852C185.753 320.292 185.665 320.82 185.577 321.524C185.401 322.139 185.401 322.843 185.225 323.459C184.961 322.139 184.433 320.82 185.049 319.325C185.577 317.829 187.16 316.774 188.744 316.862C189.799 316.862 190.767 316.246 191.383 315.278C191.734 314.838 191.822 314.311 191.91 313.607C191.998 312.991 192.086 312.287 192.262 311.672C192.438 312.991 192.966 314.223 192.438 315.806ZM204.665 374.214L204.313 374.39C204.431 374.097 204.519 373.804 204.577 373.511C204.577 373.745 204.606 373.98 204.665 374.214ZM221.29 177.526C220.851 179.022 219.355 180.077 217.772 180.077C218.065 179.491 218.358 178.904 218.651 178.318C219.267 178.054 219.883 177.614 220.235 176.998C220.499 176.559 220.675 176.031 220.675 175.327C220.733 175.034 220.792 174.711 220.851 174.36C220.968 174.184 221.085 174.008 221.202 173.832C221.378 174.975 221.73 176.119 221.29 177.526ZM221.29 235.407C220.763 236.902 219.267 237.958 217.596 237.958C216.54 237.958 215.573 238.485 214.957 239.453C214.605 239.893 214.429 240.421 214.429 241.036C214.253 241.74 214.165 242.356 213.989 243.06C213.813 241.74 213.286 240.421 213.901 238.837C214.429 237.43 216.013 236.374 217.596 236.462C218.651 236.462 219.619 235.847 220.235 234.879C220.499 234.439 220.675 233.911 220.675 233.208C220.851 232.504 220.938 231.888 221.114 231.184C221.29 232.504 221.818 233.823 221.29 235.407ZM267.823 285.282C267.296 286.69 265.8 287.833 264.129 287.833C263.073 287.833 262.106 288.361 261.49 289.241C261.138 289.769 260.962 290.208 260.874 290.912C260.786 291.616 260.698 292.232 260.522 292.935C260.346 291.616 259.731 290.296 260.346 288.713C260.962 287.218 262.546 286.25 264.129 286.25C265.185 286.25 266.152 285.634 266.768 284.755C267.032 284.227 267.12 283.787 267.208 283.083C267.384 282.38 267.384 281.764 267.56 281.06C267.823 282.38 268.351 283.699 267.823 285.282ZM322.097 162.66C321.745 162.484 321.482 162.22 321.218 161.957C320.514 161.253 319.37 160.989 318.315 161.253C317.787 161.341 317.347 161.605 316.82 162.045C316.204 162.484 315.676 162.836 315.148 163.188C315.852 162.133 316.38 160.813 317.875 160.109C318.931 159.582 320.25 159.669 321.394 160.197C321.628 161.018 321.863 161.839 322.097 162.66ZM257.444 153.952C256.652 155.007 256.124 156.327 254.541 157.031C253.133 157.646 251.286 157.206 250.143 156.063C249.439 155.359 248.295 155.095 247.24 155.359C246.712 155.447 246.272 155.711 245.744 156.151C245.129 156.503 244.601 156.943 244.073 157.294C244.865 156.239 245.393 154.919 246.8 154.216C248.207 153.512 250.143 153.864 251.286 154.919C251.99 155.711 253.133 156.063 254.189 155.887C254.717 155.711 255.245 155.535 255.772 155.095C256.3 154.656 256.828 154.304 257.444 153.952Z" fill="black"/>
<path d="M305.296 158.702C296.412 159.494 273.014 137.942 271.254 122.901C271.166 121.845 288.407 89.5621 291.222 82.7888C291.75 81.3814 329.399 110.41 329.399 110.41C329.399 110.41 319.371 122.901 314.709 134.688C314.298 135.685 314.005 136.652 313.829 137.591C313.77 137.708 313.741 137.854 313.741 138.03C312.422 143.66 315.148 157.91 305.296 158.702Z" fill="#D3766A"/>
<path d="M329.398 110.41C329.398 110.41 319.37 122.9 314.708 134.688C314.298 135.685 314.004 136.652 313.829 137.591C313.77 137.708 313.741 137.854 313.741 138.03C312.333 137.678 310.838 137.151 309.254 136.535C286.032 126.419 291.222 95.0158 293.861 84.1083C302.481 89.738 329.398 110.41 329.398 110.41Z" fill="#2D3134"/>
<path d="M366.607 32.8251C375.403 46.3716 365.111 108.122 346.375 122.021C327.023 136.359 301.689 125.188 291.397 104.956C284.272 90.9695 292.981 43.7327 303.448 30.1862C318.93 10.2183 353.764 12.7693 366.607 32.8251Z" fill="#D3766A"/>
<path opacity="0.4" d="M357.019 86.1315C357.019 86.1315 359.658 84.9 359.658 85.3398C359.658 85.4278 358.515 86.7473 358.251 87.363C358.075 87.8028 357.019 88.4186 357.019 88.5065C357.019 89.914 357.019 90.9695 357.019 91.5853C357.019 92.377 356.579 95.1039 356.579 95.8955C356.579 96.6872 357.107 99.4141 357.107 100.558C357.107 101.701 357.195 107.243 356.755 108.123C356.315 109.002 357.107 113.4 355.964 114.456C354.82 115.512 355.084 111.201 355.612 110.322C356.14 109.354 356.14 102.053 356.315 100.997C356.491 100.03 355.788 96.9511 355.788 96.1594C355.788 95.3678 356.315 93.4325 356.315 91.9372C356.315 90.8816 356.315 89.1223 356.315 87.7149C356.315 87.5389 354.644 86.6593 354.644 86.4834C354.644 86.3954 353.94 85.2519 353.94 85.1639C353.94 84.9 356.315 86.1315 356.315 86.1315H357.019Z" fill="white"/>
<path d="M330.367 63.0849C331.774 62.645 333.094 62.5571 334.589 62.2932C336.172 62.0293 337.492 61.6774 338.987 62.3812C339.867 62.821 340.307 64.0525 340.043 64.9321C339.339 66.8673 337.404 67.659 335.469 68.0988C333.358 68.5387 331.598 68.3627 329.751 67.3072C327.904 66.3396 328.52 63.5247 330.367 63.0849Z" fill="#2D3134"/>
<path d="M363.089 78.5665C360.978 78.1267 359.482 77.2471 358.075 75.5757C356.843 74.0803 355.876 72.2331 356.491 70.2979C356.843 69.4182 357.987 68.7145 358.867 68.9784C360.538 69.3303 361.33 70.3858 362.385 71.6173C363.353 72.6729 364.408 73.6405 365.288 74.872C366.431 76.3674 365.112 78.9184 363.089 78.5665Z" fill="#2D3134"/>
<path d="M322.537 102.845C323.065 103.724 323.593 104.956 324.737 105.308C325.792 105.659 327.2 105.484 328.343 105.308C328.431 105.308 328.519 105.396 328.431 105.484C327.287 106.539 325.44 106.891 324.033 106.275C322.625 105.747 322.186 104.34 322.186 102.933C322.186 102.757 322.449 102.757 322.537 102.845Z" fill="#2D3134"/>
<path d="M330.19 98.4465C336.172 96.3354 342.154 99.678 342.154 99.678C342.505 98.6225 343.121 91.4094 343.561 91.4094C344.793 91.6733 346.904 93.1687 348.223 94.0483C350.158 83.8445 350.422 73.3767 352.445 63.2608C352.533 62.909 353.061 62.909 353.061 63.2608C353.589 74.2564 351.654 86.0436 349.982 96.6872C349.718 97.9187 345.672 94.9279 344.88 94.2242C344.88 94.2242 343.649 100.91 343.561 100.997V101.085C343.473 101.437 342.945 102.053 342.593 102.053C339.339 100.91 334.325 99.1502 329.927 99.854C327.815 100.206 328.607 99.0623 330.19 98.4465Z" fill="#2D3134"/>
<path d="M354.82 78.8303C354.82 78.7424 354.996 79.0063 354.908 79.1822C354.028 81.9971 353.412 85.5156 355.787 87.1869C355.787 87.2749 355.787 87.4508 355.699 87.3629C352.621 85.9555 353.412 81.3813 354.82 78.8303Z" fill="#2D3134"/>
<path d="M355.084 78.3905C354.82 79.7979 354.644 81.2933 354.732 82.7008C354.82 84.0202 355.348 85.1637 356.491 85.4276C357.459 85.6915 358.514 84.8999 359.218 83.7563C359.57 83.1699 359.892 82.5541 360.186 81.9091C360.479 81.264 360.713 80.5603 360.889 79.7979C361.065 80.7655 360.977 81.8211 360.713 82.8767C360.596 83.3458 360.45 83.815 360.274 84.2841C359.922 84.9878 359.482 85.6916 358.778 86.2193C358.075 86.8351 357.019 87.099 356.051 86.8351C355.172 86.5712 354.38 85.9554 353.94 85.1638C353.588 84.2841 353.5 83.4045 353.588 82.6128C353.764 81.1174 354.292 79.622 355.084 78.3905Z" fill="#2D3134"/>
<path opacity="0.4" d="M332.037 79.7101C333.269 80.062 334.764 79.7981 334.764 80.3259C334.764 80.4139 334.412 81.1176 333.885 81.3815C332.829 81.9093 332.301 83.2287 332.301 83.3167C332.037 86.5714 331.158 90.7937 331.158 91.0575C331.158 91.4974 331.334 94.2243 330.894 94.928C330.454 95.7196 325.88 98.4465 325.352 98.9743C324.736 99.4142 320.426 104.868 320.338 105.396C320.25 105.836 319.458 116.831 319.458 117.447C319.371 118.063 320.778 122.285 320.778 123.34C320.778 123.956 320.162 126.155 320.162 126.771C320.25 127.387 320.778 127.739 320.778 127.827C320.866 128.003 320.69 128.178 320.426 128.178C320.162 128.09 319.986 128.003 319.81 127.651C319.634 127.299 319.634 124.66 319.81 123.516C319.986 122.285 319.019 119.206 318.931 117.711C318.755 116.215 319.371 107.507 319.546 105.66C319.722 103.812 323.681 99.766 324.736 98.4465C325.792 97.1271 329.398 94.928 329.838 94.4881C330.19 94.1363 330.278 92.9928 330.102 91.4094C329.926 89.826 331.246 86.4834 331.246 85.2519C331.334 84.5482 331.246 84.4602 331.246 83.4047C331.158 81.9093 330.718 81.2935 330.278 80.7657C329.662 80.062 329.398 78.0388 329.398 77.8629C329.486 77.599 330.718 79.3583 332.037 79.7101Z" fill="white"/>
<path d="M331.95 81.3813C331.862 81.3813 331.862 81.2054 331.95 81.2054C334.853 80.7656 335.908 77.4229 336.436 74.4321C336.436 74.3442 336.7 74.0803 336.7 74.2562C336.7 77.159 335.292 81.5572 331.95 81.3813Z" fill="#2D3134"/>
<path d="M335.996 78.1268C335.732 78.9184 335.204 79.6221 334.5 80.1499C333.797 80.7657 332.741 80.9416 331.862 80.7657C330.894 80.5018 330.102 79.7981 329.75 78.9184C329.399 78.1268 329.311 77.3351 329.311 76.5434C329.369 76.0156 329.457 75.5172 329.574 75.048C329.838 73.9924 330.19 73.0248 330.894 72.2332C330.659 72.9955 330.513 73.7285 330.454 74.4323C330.454 75.136 330.483 75.8104 330.542 76.4555C330.63 77.8629 331.158 79.0944 332.213 79.2703C333.269 79.5342 334.237 78.8305 334.94 77.599C335.644 76.4554 336.172 75.048 336.7 73.6406C336.788 75.136 336.612 76.7193 335.996 78.1268Z" fill="#2D3134"/>
<path opacity="0.2" d="M304.593 52.1773C301.074 56.3996 293.421 66.6035 290.87 66.6914C293.861 49.9782 298.435 35.5521 305.296 27.8992C308.287 24.6445 311.542 22.1816 315.324 20.2463C314.269 24.6445 308.375 47.6912 304.593 52.1773Z" fill="#2D3134"/>
<path d="M354.996 43.4688C350.862 47.7791 344.176 49.6263 338.459 47.955C332.389 46.2837 328.343 40.9178 327.023 34.9363C327.023 34.7603 327.287 34.7603 327.287 34.9363C328.519 40.478 333.533 45.0521 338.899 46.7235C344.44 48.3948 350.422 46.9874 354.732 43.2049C354.908 43.029 355.172 43.2929 354.996 43.4688Z" fill="#2D3134"/>
<path d="M360.978 12.5934C361.066 12.9452 360.274 13.0332 360.186 12.6814C358.955 9.33872 356.052 6.4359 352.269 4.32476C344.968 0.366373 335.996 0.542307 328.695 3.97291C321.218 7.49148 316.996 14.4406 316.644 21.038C316.644 21.1259 316.292 21.1259 316.292 20.95C316.204 16.8157 317.084 12.8573 319.723 9.16279C324.121 3.18123 333.621 -0.953101 343.209 0.190434C351.83 1.15804 359.131 6.25997 360.978 12.5934Z" fill="#2D3134"/>
<path d="M392.645 43.3809C386.927 52.1773 374.964 54.9921 365.728 50.2421C365.464 50.1541 365.728 49.8902 365.904 49.9782C371.006 52.4412 377.075 52.6171 382.265 50.506C391.501 46.8994 396.691 36.1678 394.052 26.5797C392.821 22.0056 389.742 17.9592 385.872 15.2323C381.122 11.8897 375.316 11.3619 369.686 11.098C369.51 11.098 369.51 10.8341 369.686 10.8341C376.372 11.098 383.057 11.4499 388.423 15.8481C392.205 19.0148 394.932 23.501 395.812 28.427C396.779 33.5289 395.46 38.9827 392.645 43.3809Z" fill="#2D3134"/>
<path d="M297.555 41.4458C297.555 41.4458 290.958 23.0612 299.93 14.2648C304.944 9.25085 319.107 11.9777 319.107 11.9777C319.107 11.9777 324.824 4.41283 337.051 3.44522C349.366 2.38965 362.561 11.362 362.561 11.362C362.561 11.362 374.788 6.43601 384.552 14.0009C398.098 24.5566 393.084 46.8116 377.163 52.0015C365.991 55.608 353.149 44.3486 353.149 44.3486C351.741 44.2606 336.611 50.77 327.815 36.7837C327.815 36.7837 318.139 43.205 311.19 36.7837C311.19 36.7837 306.176 43.9967 297.555 41.4458Z" fill="#2D3134"/>
<path d="M297.379 82.9647C297.379 82.9647 292.013 89.0343 285.416 83.4046C278.731 77.7748 278.643 54.2884 286.472 52.9689C294.213 51.7374 299.139 69.6821 299.139 69.6821L297.379 82.9647Z" fill="#D3766A"/>
<path d="M293.069 81.3814C293.069 81.4401 293.069 81.4694 293.069 81.4694C293.069 82.0851 292.102 82.0851 292.014 81.4694C291.75 79.7981 291.662 77.9508 291.046 76.3675C290.166 73.9924 288.671 73.1128 286.296 72.7609C286.208 72.7609 286.12 72.497 286.296 72.4091C289.639 71.4415 291.398 73.3767 292.277 75.9276C292.19 70.034 291.134 64.0525 286.56 59.9181C286.472 59.8302 286.56 59.6543 286.648 59.7422C293.773 63.0849 295.62 74.5202 293.069 81.3814Z" fill="#2D3134"/>
<path d="M604.374 163.276C609.652 171.545 603.142 179.286 603.142 179.286C603.142 179.286 610.267 182.452 613.082 189.402C616.337 197.406 605.253 205.939 605.253 205.939C605.253 205.939 611.763 210.689 614.05 218.342C616.337 226.259 606.397 236.55 606.397 236.55C606.397 236.55 610.092 244.291 607.277 252.296C602.527 265.93 580.887 270.768 567.165 274.023C553.443 277.278 511.484 273.495 503.391 273.671L482.016 185.707C482.016 185.707 539.456 153.776 556.081 152.281C570.156 151.049 598.392 154.04 604.374 163.276Z" fill="#D3766A"/>
<path d="M602.175 178.758C587.045 179.901 571.74 178.582 556.698 180.253C556.346 180.253 556.258 179.725 556.61 179.725C571.828 178.23 586.869 175.767 602.175 178.054C602.527 178.142 602.527 178.758 602.175 178.758Z" fill="#2D3134"/>
<path d="M604.726 205.939C601.472 207.082 597.865 207.258 594.434 207.698C590.74 208.167 587.045 208.666 583.351 209.193C575.962 210.161 568.661 211.393 561.36 212.712C561.008 212.8 560.92 212.272 561.272 212.272C568.544 210.513 575.845 208.959 583.175 207.61C586.811 206.906 590.476 206.291 594.17 205.763C597.601 205.235 601.208 204.531 604.638 204.883C605.166 204.971 605.254 205.763 604.726 205.939Z" fill="#2D3134"/>
<path d="M606.134 236.902C603.671 238.398 600.064 238.75 597.25 239.189C593.907 239.776 590.564 240.362 587.222 240.949C580.36 242.004 573.499 242.972 566.726 244.027C566.374 244.115 566.286 243.588 566.638 243.5C573.323 242.444 580.009 241.125 586.694 239.805C590.037 239.16 593.379 238.515 596.722 237.87C599.625 237.254 603.055 236.111 606.046 236.55C606.222 236.55 606.31 236.814 606.134 236.902Z" fill="#2D3134"/>
<path d="M503.392 273.671C461.521 275.958 360.362 292.32 335.908 280.269C313.565 269.273 277.411 223.18 248.295 178.406C232.814 154.568 239.059 136.711 266.152 149.202C294.301 162.133 350.51 211.744 356.579 214.383C364.496 217.726 470.581 189.401 488.789 182.012C502.072 176.735 511.924 273.143 503.392 273.671Z" fill="#D3766A"/>
<path d="M337.667 287.746C318.139 278.597 265.097 220.629 244.953 177.614C229.119 143.836 248.208 133.456 272.046 149.29C297.38 166.179 349.366 209.106 356.052 211.481C368.279 215.791 482.368 181.309 482.368 181.309L499.345 280.005C499.345 280.005 352.533 294.695 337.667 287.746Z" fill="#31C3E0"/>
<path opacity="0.2" d="M285.944 180.957C284.625 181.221 283.305 181.749 281.722 181.133C280.315 180.605 279.259 178.934 279.259 177.35C279.347 176.295 278.731 175.327 277.764 174.799C277.324 174.448 276.796 174.36 276.092 174.272C275.388 174.096 274.773 174.096 274.069 173.92C275.389 173.656 276.708 173.128 278.291 173.656C279.787 174.184 280.842 175.679 280.842 177.35C280.842 178.406 281.37 179.374 282.338 180.077C282.778 180.341 283.305 180.517 283.921 180.605C284.625 180.693 285.241 180.781 285.944 180.957ZM360.626 223.268C359.306 223.532 357.987 224.059 356.404 223.444C354.908 222.916 353.941 221.245 353.941 219.661C353.941 218.606 353.325 217.638 352.445 217.022C351.917 216.758 351.478 216.67 350.774 216.582C350.07 216.407 349.454 216.406 348.751 216.231C350.07 215.967 351.39 215.439 352.973 215.967C354.38 216.494 355.524 217.99 355.524 219.661C355.524 220.717 356.052 221.684 356.931 222.388C357.459 222.652 357.899 222.828 358.603 222.916C359.306 223.004 359.922 223.092 360.626 223.268ZM373.645 289.329C372.999 289.387 372.384 289.417 371.797 289.417C371.182 288.713 370.83 287.745 370.83 286.778C370.83 285.722 370.214 284.755 369.334 284.227C368.806 283.875 368.367 283.787 367.663 283.699C366.959 283.611 366.344 283.523 365.64 283.347C366.959 283.083 368.279 282.556 369.862 283.083C371.27 283.611 372.413 285.195 372.413 286.778C372.413 287.833 372.853 288.713 373.645 289.329ZM426.159 243.763C424.84 244.027 423.52 244.555 421.937 243.939C420.529 243.411 419.474 241.74 419.474 240.245C419.562 239.189 418.946 238.134 417.979 237.606C417.451 237.254 417.011 237.166 416.307 237.078C415.603 236.99 414.988 236.902 414.284 236.726C415.603 236.462 416.923 235.935 418.506 236.462C420.002 236.99 421.057 238.573 421.057 240.157C421.057 241.3 421.585 242.268 422.465 242.884C422.992 243.236 423.52 243.324 424.136 243.412C424.84 243.499 425.455 243.587 426.159 243.763ZM486.327 204.091C485.359 203.388 484.831 202.156 484.831 201.013C484.831 199.957 484.216 198.99 483.336 198.374C482.808 198.022 482.368 197.934 481.665 197.846C480.961 197.758 480.345 197.67 479.641 197.494C480.961 197.318 482.28 196.79 483.864 197.318C484.391 197.494 484.919 197.846 485.271 198.286L486.327 204.091ZM479.817 277.19C478.498 277.366 477.178 277.893 475.595 277.366C474.188 276.75 473.132 275.167 473.132 273.583C473.22 272.528 472.604 271.56 471.637 270.944C471.197 270.68 470.669 270.504 469.965 270.504C469.262 270.329 468.646 270.241 467.942 270.065C469.262 269.889 470.581 269.361 472.164 269.889C473.66 270.417 474.715 271.912 474.715 273.583C474.715 274.639 475.243 275.606 476.211 276.222C476.651 276.574 477.178 276.75 477.794 276.75C478.498 276.926 479.114 277.014 479.817 277.19ZM323.769 233.647C322.977 234.703 322.449 236.022 320.954 236.726C319.547 237.43 317.699 237.078 316.468 235.935C315.764 235.143 314.709 234.879 313.565 235.055C313.037 235.143 312.597 235.407 312.07 235.847C311.454 236.198 310.926 236.638 310.398 236.99C311.102 235.935 311.718 234.615 313.213 233.911C314.621 233.296 316.468 233.735 317.611 234.791C318.315 235.583 319.459 235.847 320.514 235.583C321.13 235.495 321.482 235.231 322.098 234.791C322.625 234.351 323.153 233.999 323.769 233.647ZM462.488 240.421C461.697 241.476 461.169 242.796 459.674 243.499C458.266 244.203 456.419 243.851 455.275 242.708C454.484 241.916 453.428 241.652 452.373 241.828C451.757 241.916 451.317 242.18 450.789 242.62C450.261 243.06 449.734 243.411 449.118 243.763C449.91 242.708 450.437 241.388 451.933 240.685C453.428 240.069 455.275 240.509 456.331 241.652C457.035 242.356 458.178 242.62 459.234 242.356C459.849 242.268 460.289 242.004 460.817 241.564C461.345 241.124 461.873 240.773 462.488 240.421ZM411.645 268.042C410.853 269.185 410.326 270.417 408.83 271.208C407.423 271.912 405.576 271.56 404.432 270.416C403.64 269.625 402.585 269.273 401.529 269.537C400.913 269.625 400.474 269.889 399.946 270.329C399.418 270.68 398.89 271.12 398.275 271.472C399.066 270.329 399.594 269.009 401.089 268.393C402.585 267.69 404.432 268.129 405.488 269.273C406.191 270.065 407.335 270.329 408.39 270.065C409.006 269.889 409.446 269.625 409.974 269.185C410.502 268.833 411.029 268.393 411.645 268.042ZM352.621 253.791C352.005 255.023 351.741 256.342 350.422 257.31C349.103 258.277 347.255 258.277 345.848 257.31C345.056 256.694 343.913 256.518 342.857 256.958C342.329 257.134 341.889 257.398 341.45 257.926C341.01 258.453 340.57 258.893 340.042 259.333C340.57 258.189 340.922 256.782 342.329 255.814C343.561 254.935 345.496 255.111 346.815 255.99C347.607 256.606 348.751 256.694 349.806 256.342C350.334 256.078 350.686 255.726 351.126 255.199C351.653 254.759 352.093 254.231 352.621 253.791ZM406.631 210.865C406.015 212.096 405.664 213.416 404.344 214.383C403.113 215.351 401.177 215.263 399.858 214.383C398.978 213.68 397.923 213.592 396.867 213.944C396.339 214.119 395.899 214.471 395.46 214.999C394.932 215.439 394.492 215.967 393.964 216.406C394.58 215.175 394.844 213.768 396.251 212.888C397.571 212.008 399.506 212.184 400.738 213.064C401.617 213.68 402.761 213.768 403.728 213.328C404.344 213.152 404.696 212.8 405.136 212.272C405.664 211.832 406.103 211.305 406.631 210.865ZM329.662 282.644C329.487 282.468 329.311 282.321 329.135 282.204C329.193 281.793 329.252 281.412 329.311 281.06C329.399 281.588 329.574 282.028 329.662 282.644ZM322.977 198.022C322.449 199.517 320.954 200.573 319.283 200.573C318.227 200.573 317.259 201.101 316.644 201.98C316.292 202.508 316.116 203.036 316.028 203.652C315.94 204.355 315.852 204.971 315.676 205.675C315.5 204.355 314.884 203.036 315.5 201.453C316.116 199.957 317.699 198.99 319.283 198.99C320.338 198.99 321.306 198.462 321.922 197.494C322.185 196.966 322.273 196.527 322.361 195.823C322.537 195.119 322.537 194.503 322.713 193.8C322.977 195.119 323.505 196.439 322.977 198.022ZM442.169 269.801C441.729 271.296 440.145 272.352 438.562 272.352C437.419 272.352 436.451 272.88 435.835 273.847C435.483 274.287 435.307 274.815 435.307 275.43C435.132 276.134 435.044 276.75 434.868 277.454C434.692 276.134 434.164 274.815 434.78 273.319C435.307 271.824 436.891 270.768 438.474 270.856C439.53 270.856 440.497 270.241 441.113 269.273C441.377 268.833 441.553 268.305 441.641 267.602C441.729 266.986 441.817 266.282 441.993 265.666C442.169 266.986 442.696 268.217 442.169 269.801ZM281.898 219.837C281.37 221.332 279.787 222.476 278.203 222.476C277.148 222.388 276.18 223.004 275.476 223.883C275.301 224.235 275.154 224.616 275.037 225.027C274.743 224.675 274.48 224.323 274.245 223.971C274.304 223.795 274.362 223.59 274.421 223.356C274.949 221.86 276.62 220.893 278.203 220.893C279.259 220.893 280.227 220.277 280.754 219.397C281.106 218.869 281.194 218.342 281.282 217.638C281.37 217.022 281.458 216.319 281.634 215.703C281.898 217.022 282.426 218.254 281.898 219.837ZM386.663 244.379C386.135 245.874 384.64 246.93 382.969 246.93C381.913 246.93 380.946 247.458 380.242 248.425C379.978 248.865 379.802 249.393 379.714 250.009C379.626 250.713 379.538 251.328 379.362 252.032C379.098 250.713 378.571 249.393 379.186 247.81C379.714 246.402 381.385 245.347 382.969 245.347C384.024 245.435 384.992 244.819 385.52 243.851C385.872 243.412 385.96 242.884 386.047 242.18C386.223 241.476 386.223 240.861 386.399 240.157C386.663 241.476 387.191 242.796 386.663 244.379ZM446.127 209.105C445.687 210.601 444.104 211.744 442.521 211.744C441.377 211.656 440.409 212.272 439.794 213.152C439.442 213.592 439.354 214.119 439.266 214.823C439.178 215.439 439.09 216.143 438.914 216.758C438.65 215.527 438.122 214.207 438.738 212.624C439.266 211.129 440.937 210.161 442.433 210.161C443.488 210.161 444.544 209.545 445.071 208.666C445.423 208.138 445.511 207.61 445.599 206.994C445.687 206.291 445.775 205.675 445.951 204.971C446.127 206.291 446.655 207.61 446.127 209.105ZM492.132 237.87C491.956 237.928 491.78 237.958 491.605 237.958C490.549 237.87 489.581 238.485 488.878 239.365C488.614 239.805 488.438 240.333 488.35 241.036C488.262 241.652 488.174 242.356 487.998 242.972C487.734 241.74 487.206 240.333 487.822 238.837C488.35 237.342 490.021 236.374 491.605 236.374C491.722 236.374 491.81 236.374 491.868 236.374L492.132 237.87ZM257.444 153.864C256.74 154.919 256.124 156.239 254.629 156.943C253.222 157.558 251.374 157.119 250.231 155.975C249.527 155.271 248.383 155.007 247.328 155.271C246.8 155.359 246.36 155.623 245.745 156.063C245.217 156.415 244.689 156.855 244.073 157.207C244.865 156.151 245.393 154.832 246.888 154.128C248.296 153.424 250.143 153.776 251.374 154.832C252.078 155.623 253.134 155.975 254.277 155.799C254.805 155.623 255.333 155.447 255.772 155.007C256.388 154.568 256.916 154.216 257.444 153.864Z" fill="black"/>
<path d="M467.942 191.249C470.493 204.795 472.516 218.43 474.539 232.064C475.595 238.749 476.65 245.347 477.53 252.032C478.586 258.981 479.201 266.018 480.257 272.879C480.257 273.231 479.817 273.319 479.729 272.967C478.322 266.106 476.562 259.333 475.243 252.384C474.011 245.786 472.868 239.101 471.9 232.416C469.877 218.781 468.118 205.059 467.414 191.337C467.414 190.985 467.854 190.985 467.942 191.249Z" fill="#2D3134"/>
<path d="M329.135 192.92C327.112 191.425 324.913 190.105 322.889 188.522C320.896 186.997 318.931 185.472 316.996 183.948C313.037 180.869 309.431 177.526 305.736 174.184C305.648 174.096 305.736 174.008 305.736 174.096C309.607 176.735 313.477 179.461 317.172 182.364C316.996 182.13 316.82 181.895 316.644 181.661C315.412 180.165 314.357 178.582 313.125 176.998H313.213C314.357 178.318 315.588 179.549 316.732 180.869C317.348 181.485 317.875 182.188 318.403 182.892C318.696 183.185 318.96 183.508 319.195 183.86C319.312 183.977 319.4 184.094 319.459 184.212C319.635 184.387 319.84 184.563 320.075 184.739C320.075 184.739 320.104 184.739 320.162 184.739C320.25 184.739 320.25 184.827 320.25 184.915C321.423 185.795 322.567 186.704 323.681 187.642C325.616 189.226 327.376 191.073 329.311 192.744C329.487 192.832 329.223 193.008 329.135 192.92Z" fill="#2D3134"/>
<path d="M346.2 289.241C345.057 289.505 340.482 289.681 339.427 289.417C335.38 288.449 330.015 284.051 323.945 279.917C320.251 277.366 316.996 274.111 313.653 271.032C301.954 260.037 291.398 247.81 281.722 234.967C279.025 231.39 276.386 227.783 273.806 224.147C273.747 224.089 273.688 224.03 273.63 223.971C273.278 223.62 272.897 223.268 272.486 222.916C271.694 222.212 270.991 221.42 270.199 220.717C267.12 217.638 264.041 214.559 261.315 211.217C261.227 211.129 261.315 210.953 261.403 211.041C263.866 213.152 266.241 215.351 268.528 217.638C269.407 218.518 270.287 219.427 271.167 220.365C265.449 212.008 259.907 203.476 254.277 195.031C254.19 194.855 254.453 194.767 254.541 194.855C259.907 202.156 265.273 209.457 270.815 216.582C280.667 229.249 290.255 242.004 300.986 253.879C306.264 259.861 311.806 265.579 317.612 271.032C320.515 273.759 333.005 284.667 339.867 287.658C340.922 288.097 345.145 288.801 346.2 289.065C346.288 289.065 346.288 289.241 346.2 289.241Z" fill="#2D3134"/>
<path d="M99.9741 314.584C98.1988 322.129 96.3125 329.674 95.8686 337.552C96.0906 337.885 96.0906 339.327 95.8686 338.995C95.7577 340.215 93.8714 339.993 93.8714 338.773C93.8714 337.959 93.9084 337.145 93.9823 336.332C89.433 330.784 82.8864 327.233 77.6713 322.351C73.4548 318.467 70.3479 313.807 68.7945 308.148C64.3561 293.057 68.4616 277.079 63.2465 262.1C58.6972 249.117 50.5971 237.91 43.6067 226.149C36.3943 213.721 31.0682 200.628 30.5134 186.092C30.0696 174.996 31.4011 160.128 39.8341 151.806C48.8218 142.929 60.0287 149.587 66.9082 157.465C86.8809 180.433 96.0905 209.283 99.8632 238.909C101.86 255.331 104.08 271.753 103.525 288.286C103.303 297.274 101.971 305.929 99.9741 314.584Z" fill="#EBEBEB"/>
<path d="M87.9901 406.014C87.8791 406.569 86.9914 406.458 87.1024 405.903C88.6558 385.709 92.0956 365.736 93.3161 345.43C93.76 337.811 93.9819 330.229 93.9819 322.684C86.3257 312.364 80.7777 299.493 76.7832 287.509C76.6722 287.177 77.116 286.955 77.227 287.287C81.9983 298.827 88.101 309.257 93.8709 320.242C93.76 309.479 93.0942 298.716 91.6517 288.064C90.5421 280.297 89.0997 272.604 87.3243 264.985C77.116 246.232 61.1379 231.253 51.4844 212.168C51.4844 212.168 51.5953 212.057 51.7063 212.168C62.4694 229.256 76.8941 243.791 86.5476 261.656C80.2229 235.802 70.0146 210.947 56.1447 188.422C55.9228 187.979 56.5885 187.535 56.9214 187.979C76.1174 217.938 89.0997 251.448 94.2038 286.733C94.3148 284.403 94.5367 282.072 94.7586 279.742C95.1285 272.715 95.1655 265.65 94.8696 258.549C94.4257 245.345 92.9833 232.03 90.5421 219.047C90.4312 218.936 90.7641 218.825 90.7641 219.047C93.76 232.362 95.7572 245.678 96.312 259.326C96.7559 271.975 95.7572 284.403 95.5353 296.941C95.5353 297.052 95.4244 297.052 95.4244 297.163C96.9778 312.586 96.9778 328.121 95.9792 343.544C94.6476 364.293 92.2065 385.598 87.9901 406.014Z" fill="#A6A6A6"/>
<path d="M83.4411 218.382C83.5521 218.825 82.8863 218.936 82.6644 218.493C80.0013 207.951 78.0041 197.632 74.2314 187.424C74.2314 187.202 74.4534 187.091 74.4534 187.313C78.5589 197.077 82.4425 207.729 83.4411 218.382Z" fill="#A6A6A6"/>
<path d="M168.436 230.143C166.106 236.135 163.11 242.016 159.892 247.675C153.234 259.769 146.355 270.865 145.023 284.957C144.469 291.282 144.358 297.606 142.36 303.598C140.696 308.924 138.033 313.696 134.926 318.245C127.714 328.786 118.726 337.885 111.957 348.759C105.078 360.077 99.8629 372.615 96.756 385.486C96.645 386.263 95.4245 386.041 95.6464 385.376C95.6464 385.302 95.6464 385.228 95.6464 385.154C95.6464 385.154 95.6464 385.117 95.6464 385.043C94.5368 354.751 96.9779 324.348 106.188 295.387C110.182 282.738 115.175 270.199 120.834 258.105C125.716 247.675 131.93 237.577 140.585 229.699C146.244 224.595 158.449 215.053 166.439 220.157C170.211 222.598 169.989 226.37 168.436 230.143Z" fill="#EBEBEB"/>
<path d="M138.366 298.827C134.15 306.705 129.156 314.139 123.83 321.352C120.945 325.124 117.95 328.897 114.954 332.67C112.291 336.109 108.629 339.771 106.743 343.877C103.969 355.084 101.195 366.29 98.6426 377.608C96.7933 385.302 95.0179 393.032 93.3165 400.799C91.6521 408.455 90.4316 416.333 88.3234 423.989C88.2124 424.322 87.7686 424.211 87.7686 423.878C89.5439 409.787 93.0946 395.584 96.0905 381.603C97.496 375.093 98.9385 368.584 100.418 362.074C99.1974 350.312 100.529 338.107 103.303 326.678C103.414 326.456 103.747 326.456 103.747 326.678C101.528 337.885 100.862 348.981 100.751 360.299C104.634 343.211 108.851 326.123 113.622 309.146C114.732 305.152 115.952 301.194 117.284 297.274C118.393 282.96 122.388 268.202 127.936 254.998C127.936 254.887 128.158 254.887 128.158 255.109C123.498 268.535 120.391 281.85 117.839 295.72C120.058 289.174 122.499 282.849 125.495 276.635C130.932 265.65 137.367 255.109 143.803 244.568C144.025 244.235 144.58 244.568 144.358 244.901C136.591 258.216 129.046 271.642 123.387 286.067C117.506 300.713 113.844 316.137 109.96 331.338C109.147 334.519 108.333 337.7 107.519 340.881C108.74 338.994 110.293 337.108 111.736 335.333C114.621 331.56 117.617 327.787 120.502 323.904C126.715 315.804 132.929 307.482 138.033 298.716C138.144 298.494 138.477 298.605 138.366 298.827Z" fill="#A6A6A6"/>
<path d="M139.698 285.956C133.817 294.943 128.158 304.153 122.388 313.141C122.277 313.363 122.166 313.141 122.166 313.03C126.826 303.487 132.818 294.167 139.365 285.734C139.476 285.623 139.698 285.734 139.698 285.956Z" fill="#A6A6A6"/>
<path d="M3.21774 229.699C7.43421 219.602 18.0863 227.702 23.3014 232.14C42.1646 248.562 55.3687 270.311 67.9072 291.615C75.3415 304.264 81.5552 317.135 84.6621 331.449C87.658 345.43 87.658 359.744 84.9949 373.836C84.9949 373.947 84.9949 373.947 84.884 374.058C84.958 374.132 84.9949 374.206 84.9949 374.28C85.1059 375.167 83.3306 375.389 83.2196 374.502C79.447 346.651 51.0413 334.556 30.2919 320.908C21.9699 315.471 10.4301 307.815 11.9835 296.275C12.6493 291.06 16.4219 286.844 17.4206 281.739C19.085 273.639 14.6466 265.539 10.763 258.771C5.99173 250.56 -0.776801 239.686 3.21774 229.699Z" fill="#EBEBEB"/>
<path d="M29.7375 304.042C43.4965 318.911 65.3555 327.233 77.2282 343.877C70.2378 318.356 58.587 295.388 40.7225 275.415C40.2787 274.86 40.9444 274.194 41.4992 274.638C54.5925 287.176 64.2459 301.823 71.3474 317.801C68.1295 306.373 63.6912 295.72 58.476 284.957C58.2541 284.514 58.8089 284.181 59.0308 284.624C65.6884 295.942 70.1268 308.703 72.9008 321.574C88.5461 359.3 89.9886 403.573 86.6598 443.408C86.6598 443.962 85.7721 443.962 85.7721 443.408C86.6598 412.006 86.2159 380.161 78.6707 349.425C78.5227 348.833 78.3378 348.204 78.1159 347.539C65.2446 329.563 43.4965 321.241 29.5156 304.264C29.4046 304.042 29.6265 303.82 29.7375 304.042Z" fill="#A6A6A6"/>
<path d="M26.519 291.171C33.7313 297.829 40.8328 304.597 48.1561 311.255L48.0451 311.366C40.167 306.04 32.1779 298.938 26.0751 291.615C25.8532 291.282 26.2971 290.949 26.519 291.171Z" fill="#A6A6A6"/>
<path d="M25.4097 262.543C31.9564 272.974 38.8358 282.849 47.0469 292.17C47.1578 292.392 46.9359 292.502 46.8249 292.392C38.0591 283.959 30.292 273.75 24.9659 262.765C24.8549 262.433 25.2988 262.211 25.4097 262.543Z" fill="#A6A6A6"/>
<path d="M67.6853 386.374H112.624L121.168 471.48H57.9209L67.6853 386.374Z" fill="#EBEBEB"/>
<path d="M67.6849 386.374H112.624L114.066 400.244H66.0205L67.6849 386.374Z" fill="#C7C7C7"/>
<path d="M59.918 376.943H119.17V390.591H59.918V376.943Z" fill="#EBEBEB"/>
<!-- <path d="M0 471.147L115.731 470.704L231.462 470.482L462.812 470.038L694.163 470.482L809.894 470.704L925.625 471.147L809.894 471.702L694.163 471.924L462.812 472.257L231.462 471.924L115.731 471.702L0 471.147Z" fill="#263238"/> -->
</svg>
