<svg xmlns="http://www.w3.org/2000/svg" width="205" height="205" viewBox="0 0 205 205" fill="none">
	<path d="M102.44 204.921H101.99C45.7532 204.921 0 159.155 0 102.902V102.452C0 46.1985 45.7532 0.431763 101.99 0.431763H102.44C158.676 0.431763 204.429 46.1985 204.429 102.452V102.902C204.429 159.155 158.676 204.921 102.44 204.921ZM101.99 7.35352C49.566 7.35352 6.91972 50.0124 6.91972 102.452V102.902C6.91972 155.341 49.566 198 101.99 198H102.44C154.863 198 197.51 155.341 197.51 102.902V102.452C197.51 50.0124 154.863 7.35352 102.44 7.35352H101.99Z" fill="#BCBCBC" />
	<path d="M115.968 79.7482V101.268H142.581L138.367 130.256H115.968V197.044C111.477 197.667 106.882 197.993 102.218 197.993C96.8347 197.993 91.548 197.564 86.3997 196.733V130.256H61.8555V101.268H86.3997V74.9376C86.3997 58.6022 99.6372 45.354 115.975 45.354V45.3679C116.023 45.3679 116.065 45.354 116.113 45.354H142.588V70.4246H125.289C120.147 70.4246 115.975 74.5984 115.975 79.7413L115.968 79.7482Z" fill="#BCBCBC" />
</svg>
