<svg xmlns="http://www.w3.org/2000/svg" width="205" height="205" viewBox="0 0 205 205" fill="none">
  <path d="M102.965 204.54H102.516C46.279 204.54 0.525818 158.774 0.525818 102.52V102.07C0.525818 45.8173 46.279 0.0506592 102.516 0.0506592H102.965C159.202 0.0506592 204.955 45.8173 204.955 102.07V102.52C204.955 158.774 159.202 204.54 102.965 204.54ZM102.516 6.97242C50.0918 6.97242 7.44554 49.6312 7.44554 102.07V102.52C7.44554 154.96 50.0918 197.618 102.516 197.618H102.965C155.389 197.618 198.035 154.96 198.035 102.52V102.07C198.035 49.6312 155.389 6.97242 102.965 6.97242H102.516Z" fill="#383D38"/>
  <path d="M44.044 48.2399L89.5896 109.151L43.7603 158.677H54.0776L94.2051 115.319L126.624 158.677H161.728L113.622 94.3389L156.282 48.2399H145.965L109.013 88.1716L79.1547 48.2399H44.0509H44.044ZM59.212 55.8401H75.335L146.546 151.077H130.423L59.212 55.8401Z" fill="#383D38"/>
</svg>