<svg xmlns="http://www.w3.org/2000/svg" width="18" height="18" viewBox="0 0 18 18" fill="none">
  <g clip-path="url(#clip0_24_737)">
    <path d="M9 2.2365C11.2028 2.2365 11.4638 2.24475 12.3338 2.2845C12.8568 2.29059 13.3749 2.38675 13.8653 2.56875C14.2237 2.70083 14.548 2.91178 14.814 3.186C15.0882 3.45202 15.2992 3.77625 15.4313 4.13475C15.6133 4.62514 15.7094 5.14321 15.7155 5.66625C15.7553 6.53625 15.7635 6.79725 15.7635 9C15.7635 11.2028 15.7553 11.4638 15.7155 12.3338C15.7094 12.8568 15.6133 13.3749 15.4313 13.8653C15.294 14.2211 15.0837 14.5443 14.814 14.814C14.5443 15.0837 14.2211 15.294 13.8653 15.4313C13.3749 15.6133 12.8568 15.7094 12.3338 15.7155C11.4638 15.7553 11.2028 15.7635 9 15.7635C6.79725 15.7635 6.53625 15.7553 5.66625 15.7155C5.14321 15.7094 4.62514 15.6133 4.13475 15.4313C3.77625 15.2992 3.45202 15.0882 3.186 14.814C2.91178 14.548 2.70083 14.2237 2.56875 13.8653C2.38675 13.3749 2.29059 12.8568 2.2845 12.3338C2.24475 11.4638 2.2365 11.2028 2.2365 9C2.2365 6.79725 2.24475 6.53625 2.2845 5.66625C2.29059 5.14321 2.38675 4.62514 2.56875 4.13475C2.70083 3.77625 2.91178 3.45202 3.186 3.186C3.45202 2.91178 3.77625 2.70083 4.13475 2.56875C4.62514 2.38675 5.14321 2.29059 5.66625 2.2845C6.53625 2.24475 6.79725 2.2365 9 2.2365ZM9 0.75C6.75975 0.75 6.4785 0.75975 5.59875 0.7995C4.91444 0.813642 4.23743 0.943213 3.59625 1.18275C3.04766 1.39513 2.54955 1.71989 2.13391 2.13618C1.71827 2.55247 1.39428 3.05108 1.18275 3.6C0.943213 4.24118 0.813642 4.91819 0.7995 5.6025C0.75975 6.4785 0.75 6.75975 0.75 9C0.75 11.2403 0.75975 11.5215 0.7995 12.4013C0.813642 13.0856 0.943213 13.7626 1.18275 14.4038C1.39513 14.9523 1.71989 15.4505 2.13618 15.8661C2.55247 16.2817 3.05108 16.6057 3.6 16.8173C4.24118 17.0568 4.91819 17.1864 5.6025 17.2005C6.4785 17.2403 6.75975 17.25 9 17.25C11.2403 17.25 11.5215 17.2403 12.4013 17.2005C13.0856 17.1864 13.7626 17.0568 14.4038 16.8173C14.9523 16.6049 15.4505 16.2801 15.8661 15.8638C16.2817 15.4475 16.6057 14.9489 16.8173 14.4C17.0568 13.7588 17.1864 13.0818 17.2005 12.3975C17.2403 11.5215 17.25 11.2403 17.25 9C17.25 6.75975 17.2403 6.4785 17.2005 5.59875C17.1864 4.91444 17.0568 4.23743 16.8173 3.59625C16.6049 3.04766 16.2801 2.54955 15.8638 2.13391C15.4475 1.71827 14.9489 1.39428 14.4 1.18275C13.7588 0.943213 13.0818 0.813642 12.3975 0.7995C11.5215 0.75975 11.2403 0.75 9 0.75Z" fill="#676A6C"/>
    <path d="M9.00006 4.76324C8.16211 4.76324 7.34298 5.01173 6.64625 5.47727C5.94952 5.94281 5.40648 6.6045 5.08581 7.37866C4.76514 8.15283 4.68124 9.0047 4.84472 9.82654C5.00819 10.6484 5.4117 11.4033 6.00422 11.9958C6.59674 12.5884 7.35166 12.9919 8.17351 13.1553C8.99536 13.3188 9.84723 13.2349 10.6214 12.9142C11.3956 12.5936 12.0572 12.0505 12.5228 11.3538C12.9883 10.6571 13.2368 9.83795 13.2368 9C13.2368 7.87634 12.7904 6.79871 11.9959 6.00416C11.2013 5.20962 10.1237 4.76324 9.00006 4.76324ZM9.00006 11.7502C8.45611 11.7502 7.92438 11.5889 7.4721 11.2867C7.01982 10.9845 6.66732 10.555 6.45916 10.0525C6.251 9.54993 6.19653 8.99694 6.30265 8.46345C6.40877 7.92995 6.67071 7.4399 7.05534 7.05527C7.43997 6.67065 7.93001 6.40871 8.46351 6.30259C8.99701 6.19647 9.54999 6.25094 10.0525 6.4591C10.5551 6.66726 10.9846 7.01976 11.2868 7.47204C11.589 7.92431 11.7503 8.45605 11.7503 9C11.7503 9.72941 11.4606 10.4289 10.9448 10.9447C10.429 11.4605 9.72947 11.7502 9.00006 11.7502Z" fill="#676A6C"/>
    <path d="M13.4041 5.58599C13.9508 5.58599 14.3941 5.14275 14.3941 4.59599C14.3941 4.04923 13.9508 3.60599 13.4041 3.60599C12.8573 3.60599 12.4141 4.04923 12.4141 4.59599C12.4141 5.14275 12.8573 5.58599 13.4041 5.58599Z" fill="#676A6C"/>
  </g>
  <defs>
    <clipPath id="clip0_24_737">
      <rect width="18" height="18" fill="white"/>
    </clipPath>
  </defs>
</svg>