<svg xmlns="http://www.w3.org/2000/svg" width="24" height="24" viewBox="0 0 24 24" fill="none">
	<path d="M15.7554 11.7003C17.9414 11.7003 19.7135 9.92822 19.7135 7.7422C19.7135 5.55618 17.9414 3.78406 15.7554 3.78406C13.5694 3.78406 11.7972 5.55618 11.7972 7.7422C11.7972 9.92822 13.5694 11.7003 15.7554 11.7003Z" fill="#FF7B29" />
	<path d="M15.7554 11.7005C17.9414 11.7005 19.7135 9.92841 19.7135 7.74239C19.7135 6.05137 18.6531 4.60803 17.1609 4.04108" stroke="#fff" stroke-width="2.475" stroke-linecap="round" stroke-linejoin="round" />
	<path d="M21.1618 17.2607C23.0979 18.5502 21.7905 21.0373 19.4643 21.0373H10.7285C8.4023 21.0373 7.09493 18.5502 9.03105 17.2607C10.7677 16.104 12.8533 15.4299 15.0964 15.4299C17.3395 15.4299 19.4251 16.104 21.1618 17.2607Z" fill="#FF7B29" />
	<path d="M9.09515 10.9158C11.4648 10.9158 13.3857 8.99487 13.3857 6.62524C13.3857 4.25562 11.4648 2.33466 9.09515 2.33466C6.72553 2.33466 4.80457 4.25562 4.80457 6.62524C4.80457 8.99487 6.72553 10.9158 9.09515 10.9158Z" fill="#FF7B29" stroke="#fff" stroke-width="2.475" stroke-linecap="round" stroke-linejoin="round" />
	<path d="M15.6671 16.9439C17.7659 18.3418 16.3487 21.0377 13.827 21.0377H4.35757C1.83594 21.0377 0.418766 18.3418 2.51751 16.9439C4.40003 15.6901 6.66083 14.9594 9.09231 14.9594C11.5238 14.9594 13.7846 15.6901 15.6671 16.9439Z" fill="#FF7B29" stroke="#fff" stroke-width="2.475" />
	<path d="M13.4623 21.0376H19.4643C21.7906 21.0376 23.0979 18.5505 21.1618 17.2609C20.6272 16.9049 20.0595 16.5945 19.4643 16.3355" stroke="#fff" stroke-width="2.475" stroke-linecap="round" />
</svg>
