<svg xmlns="http://www.w3.org/2000/svg" width="24" height="24" viewBox="0 0 24 24" fill="none">
	<path d="M3.96955 11.2862H1.55492L2.87978 7.23804C3.17712 6.32953 3.82399 5.57758 4.6904 5.17366C6.09782 4.51751 8.39514 3.49588 10.531 2.76716C11.1934 2.54118 11.9111 2.54131 12.573 2.76856C14.6655 3.48695 16.9817 4.51436 18.4043 5.17391C19.2764 5.57822 19.9285 6.33309 20.2275 7.24667L21.5496 11.2862H19.1353C19.2742 12.4356 19.3899 13.6148 19.3899 14.8166C19.3899 16.373 19.1958 17.8915 19.0086 19.3564C18.9899 19.5025 18.9713 19.6481 18.953 19.7931C18.8532 20.5828 18.2169 21.2046 17.4227 21.2567C13.438 21.5177 9.6668 21.5177 5.68208 21.2567C4.88787 21.2046 4.25166 20.5828 4.15182 19.7931C4.13348 19.6481 4.11487 19.5025 4.0962 19.3564C3.90898 17.8915 3.71491 16.3729 3.71491 14.8166C3.71491 13.6148 3.83063 12.4356 3.96955 11.2862Z" fill="#FF7B29" stroke="#fff" stroke-width="2.475" stroke-linejoin="round" />
	<circle cx="11.5521" cy="8.44858" r="1.65" fill="#fff" />
	<path d="M15.1293 21.3789C12.7281 21.4769 10.3761 21.4769 7.97491 21.3789C7.88837 20.3871 7.80193 19.3607 7.80193 18.3097C7.80193 17.2204 7.8948 16.1575 7.98437 15.1322C8.02168 14.7052 8.05841 14.2847 8.08763 13.8716C8.42732 13.8322 8.77333 13.7806 9.12496 13.7282C9.90885 13.6114 10.7206 13.4905 11.5521 13.4905C12.3836 13.4905 13.1953 13.6114 13.9792 13.7282C14.3309 13.7806 14.6769 13.8322 15.0166 13.8716C15.0458 14.2847 15.0825 14.7052 15.1198 15.1322C15.2094 16.1575 15.3023 17.2204 15.3023 18.3097C15.3023 19.3607 15.2158 20.3871 15.1293 21.3789Z" fill="white" stroke="#fff" stroke-width="2.475" stroke-linejoin="round" />
</svg>
