<svg xmlns="http://www.w3.org/2000/svg" width="24" height="24" viewBox="0 0 24 24" fill="none">
	<path d="M5.81427 10.545C5.90077 14.0093 8.67862 17.0409 12.144 17.0409C15.6638 17.0409 18.3755 14.0582 18.472 10.5398C18.4839 10.1071 18.4902 9.67119 18.4902 9.23217C18.4902 7.15735 18.3638 5.12898 18.1494 3.20811C18.0713 2.5087 17.5446 1.94271 16.8505 1.8267C15.3293 1.57247 13.7681 1.42343 12.144 1.42343C10.5163 1.42343 8.92688 1.56376 7.41231 1.82274C6.7302 1.93937 6.21454 2.49607 6.13537 3.18354C5.91382 5.10741 5.79785 7.1497 5.79785 9.23217C5.79785 9.67308 5.80342 10.1107 5.81427 10.545Z" fill="#ff7b29" />
	<path d="M5.81427 10.545C5.90077 14.0093 8.67862 17.0409 12.144 17.0409C15.6638 17.0409 18.3755 14.0582 18.472 10.5398C18.4839 10.1071 18.4902 9.67119 18.4902 9.23217C18.4902 7.15735 18.3638 5.12898 18.1494 3.20811C18.0713 2.5087 17.5446 1.94271 16.8505 1.8267C15.3293 1.57247 13.7681 1.42343 12.144 1.42343C10.5163 1.42343 8.92688 1.56376 7.41231 1.82274C6.7302 1.93937 6.21454 2.49607 6.13537 3.18354C5.91382 5.10741 5.79785 7.1497 5.79785 9.23217C5.79785 9.67308 5.80342 10.1107 5.81427 10.545Z" stroke="#fff" stroke-width="2.475" />
	<path d="M12.144 17.0533V22.0484" stroke="#fff" stroke-width="2.475" stroke-linecap="round" stroke-linejoin="round" />
	<path d="M8.17767 22.0484H16.1104" stroke="#fff" stroke-width="2.475" stroke-linecap="round" stroke-linejoin="round" />
	<path d="M18.0936 3.00998H20.8065C21.7178 3.00998 22.4565 3.74871 22.4565 4.65998V4.95135C22.4565 6.496 21.9551 7.97739 21.0625 9.06962C20.3582 9.93143 19.4559 10.4953 18.4865 10.6948" stroke="#fff" stroke-width="2.475" stroke-linecap="round" stroke-linejoin="round" />
	<path d="M6.15112 3.00998H3.49392C2.58265 3.00998 1.84392 3.74871 1.84392 4.65998V4.95135C1.84392 6.496 2.34538 7.97739 3.23798 9.06962C3.93838 9.92667 4.83459 10.489 5.79795 10.6915" stroke="#fff" stroke-width="2.475" stroke-linecap="round" stroke-linejoin="round" />
</svg>
